<svg width="145" height="82" viewBox="0 0 145 82" fill="none" xmlns="http://www.w3.org/2000/svg">
<g opacity="0.2">
<path d="M32.6765 82C26.4306 82 20.8322 80.3966 15.8812 77.1899C11.0064 73.9832 7.12179 69.3259 4.22737 63.2179C1.40912 57.1099 0 49.7039 0 41C0 32.2961 1.40912 24.8901 4.22737 18.7821C7.12179 12.6741 11.0064 8.01676 15.8812 4.81006C20.8322 1.60335 26.4306 0 32.6765 0C38.8461 0 44.4065 1.60335 49.3574 4.81006C54.3084 8.01676 58.193 12.6741 61.0113 18.7821C63.8295 24.8901 65.2387 32.2961 65.2387 41C65.2387 49.7039 63.8295 57.1099 61.0113 63.2179C58.193 69.3259 54.3084 73.9832 49.3574 77.1899C44.4065 80.3966 38.8461 82 32.6765 82ZM32.6765 71.8073C36.8657 71.8073 40.5219 70.662 43.6448 68.3715C46.8439 66.081 49.3194 62.6453 51.0712 58.0643C52.8993 53.4832 53.8133 47.7952 53.8133 41C53.8133 34.2048 52.8993 28.5168 51.0712 23.9358C49.3194 19.3547 46.8439 15.919 43.6448 13.6285C40.5219 11.338 36.8657 10.1927 32.6765 10.1927C28.4872 10.1927 24.793 11.338 21.5939 13.6285C18.3948 15.919 15.8812 19.3547 14.0532 23.9358C12.3013 28.5168 11.4253 34.2048 11.4253 41C11.4253 47.7952 12.3013 53.4832 14.0532 58.0643C15.8812 62.6453 18.3948 66.081 21.5939 68.3715C24.793 70.662 28.4872 71.8073 32.6765 71.8073Z" fill="#889BD3"/>
<path d="M95.4007 81.0838V5.4972L100.314 10.8799H77.3486V0.916196H106.712V81.0838H95.4007Z" fill="#889BD3"/>
<path d="M137.459 81.7709C135.327 81.7709 133.498 81.0456 131.975 79.595C130.452 78.068 129.69 76.1592 129.69 73.8687C129.69 71.5782 130.452 69.7076 131.975 68.257C133.498 66.8063 135.327 66.081 137.459 66.081C139.516 66.081 141.268 66.8063 142.715 68.257C144.238 69.7076 145 71.5782 145 73.8687C145 76.1592 144.238 78.068 142.715 79.595C141.268 81.0456 139.516 81.7709 137.459 81.7709Z" fill="#889BD3"/>
</g>
</svg>
