<svg width="169" height="82" viewBox="0 0 169 82" fill="none" xmlns="http://www.w3.org/2000/svg">
<g opacity="0.2">
<path d="M32.5926 82C26.3627 82 20.7787 80.3966 15.8404 77.1899C10.9781 73.9832 7.10351 69.3259 4.21652 63.2179C1.40551 57.1099 0 49.7039 0 41C0 32.2961 1.40551 24.8901 4.21652 18.7821C7.10351 12.6741 10.9781 8.01676 15.8404 4.81006C20.7787 1.60335 26.3627 0 32.5926 0C38.7464 0 44.2925 1.60335 49.2307 4.81006C54.169 8.01676 58.0436 12.6741 60.8546 18.7821C63.6656 24.8901 65.0712 32.2961 65.0712 41C65.0712 49.7039 63.6656 57.1099 60.8546 63.2179C58.0436 69.3259 54.169 73.9832 49.2307 77.1899C44.2925 80.3966 38.7464 82 32.5926 82ZM32.5926 71.8073C36.7711 71.8073 40.4178 70.662 43.5327 68.3715C46.7236 66.081 49.1927 62.6453 50.9401 58.0642C52.7635 53.4832 53.6752 47.7952 53.6752 41C53.6752 34.2048 52.7635 28.5168 50.9401 23.9358C49.1927 19.3547 46.7236 15.919 43.5327 13.6285C40.4178 11.338 36.7711 10.1927 32.5926 10.1927C28.414 10.1927 24.7293 11.338 21.5384 13.6285C18.3476 15.919 15.8404 19.3547 14.0171 23.9358C12.2697 28.5168 11.396 34.2048 11.396 41C11.396 47.7952 12.2697 53.4832 14.0171 58.0642C15.8404 62.6453 18.3476 66.081 21.5384 68.3715C24.7293 70.662 28.414 71.8073 32.5926 71.8073Z" fill="#424E74"/>
<path d="M80.4549 81.0838V73.2961L112.933 41.8017C115.82 39.0531 117.948 36.648 119.315 34.5866C120.759 32.4488 121.708 30.5019 122.164 28.7458C122.696 26.9134 122.962 25.1574 122.962 23.4776C122.962 19.3547 121.518 16.1099 118.631 13.743C115.744 11.3762 111.528 10.1927 105.982 10.1927C101.727 10.1927 97.8907 10.9181 94.4719 12.3687C91.0531 13.743 88.0902 15.919 85.5831 18.8966L77.8338 12.1397C80.8727 8.2458 84.9373 5.26815 90.0275 3.2067C95.1937 1.0689 100.854 0 107.008 0C112.554 0 117.378 0.916201 121.48 2.7486C125.583 4.50465 128.736 7.06238 130.939 10.4218C133.218 13.7812 134.358 17.7514 134.358 22.3324C134.358 24.9283 134.016 27.486 133.332 30.0056C132.649 32.5251 131.357 35.1974 129.458 38.0223C127.558 40.8473 124.823 44.0158 121.253 47.5279L92.3067 75.5866L89.5717 71.1201H137.777V81.0838H80.4549Z" fill="#424E74"/>
<path d="M161.479 81.771C159.351 81.771 157.528 81.0456 156.009 79.595C154.489 78.068 153.729 76.1592 153.729 73.8687C153.729 71.5782 154.489 69.7076 156.009 68.257C157.528 66.8063 159.351 66.081 161.479 66.081C163.53 66.081 165.277 66.8063 166.721 68.257C168.24 69.7076 169 71.5782 169 73.8687C169 76.1592 168.24 78.068 166.721 79.595C165.277 81.0456 163.53 81.771 161.479 81.771Z" fill="#424E74"/>
</g>
</svg>
