<svg width="166" height="82" viewBox="0 0 166 82" fill="none" xmlns="http://www.w3.org/2000/svg">
<g opacity="0.2">
<path d="M32.4846 82C26.2754 82 20.7099 80.3966 15.788 77.1899C10.9418 73.9832 7.07998 69.3259 4.20255 63.2179C1.40085 57.1099 0 49.7039 0 41C0 32.2961 1.40085 24.8901 4.20255 18.7821C7.07998 12.6741 10.9418 8.01676 15.788 4.81006C20.7099 1.60335 26.2754 0 32.4846 0C38.6181 0 44.1458 1.60335 49.0677 4.81006C53.9896 8.01676 57.8514 12.6741 60.6531 18.7821C63.4548 24.8901 64.8556 32.2961 64.8556 41C64.8556 49.7039 63.4548 57.1099 60.6531 63.2179C57.8514 69.3259 53.9896 73.9832 49.0677 77.1899C44.1458 80.3966 38.6181 82 32.4846 82ZM32.4846 71.8073C36.6493 71.8073 40.2839 70.662 43.3885 68.3715C46.5688 66.081 49.0298 62.6453 50.7714 58.0642C52.5887 53.4832 53.4974 47.7952 53.4974 41C53.4974 34.2048 52.5887 28.5168 50.7714 23.9358C49.0298 19.3547 46.5688 15.919 43.3885 13.6285C40.2839 11.338 36.6493 10.1927 32.4846 10.1927C28.3199 10.1927 24.6474 11.338 21.4671 13.6285C18.2868 15.919 15.788 19.3547 13.9707 23.9358C12.2291 28.5168 11.3583 34.2048 11.3583 41C11.3583 47.7952 12.2291 53.4832 13.9707 58.0642C15.788 62.6453 18.2868 66.081 21.4671 68.3715C24.6474 70.662 28.3199 71.8073 32.4846 71.8073Z" fill="#424E74"/>
<path d="M104.635 82C99.0319 82 93.5799 81.122 88.2794 79.3659C83.0546 77.6099 78.7763 75.243 75.4445 72.2654L80.6693 63.2179C83.3196 65.7374 86.7649 67.7989 91.0054 69.4022C95.2458 71.0056 99.7891 71.8073 104.635 71.8073C110.542 71.8073 115.123 70.5475 118.379 68.0279C121.711 65.432 123.376 61.9581 123.376 57.6061C123.376 53.4069 121.786 50.0475 118.606 47.5279C115.501 44.932 110.542 43.6341 103.727 43.6341H97.366V35.6173L120.991 6.29888L122.581 10.8799H79.0792V0.916196H131.554V8.70391L108.043 37.9078L102.136 34.3575H105.885C115.501 34.3575 122.695 36.5335 127.465 40.8855C132.312 45.2374 134.735 50.7728 134.735 57.4916C134.735 61.9963 133.637 66.1192 131.441 69.8603C129.245 73.6015 125.913 76.5791 121.445 78.7933C117.054 80.9311 111.45 82 104.635 82Z" fill="#424E74"/>
<path d="M158.504 81.771C156.383 81.771 154.566 81.0456 153.052 79.595C151.537 78.068 150.78 76.1592 150.78 73.8687C150.78 71.5782 151.537 69.7076 153.052 68.257C154.566 66.8063 156.383 66.081 158.504 66.081C160.548 66.081 162.29 66.8063 163.728 68.257C165.243 69.7076 166 71.5782 166 73.8687C166 76.1592 165.243 78.068 163.728 79.595C162.29 81.0456 160.548 81.771 158.504 81.771Z" fill="#424E74"/>
</g>
</svg>
