<svg width="682" height="682" viewBox="0 0 682 682" fill="none" xmlns="http://www.w3.org/2000/svg">
<mask id="mask0_276_14" style="mask-type:alpha" maskUnits="userSpaceOnUse" x="0" y="0" width="682" height="682">
<circle cx="341" cy="341" r="341" fill="#D9D9D9"/>
</mask>
<g mask="url(#mask0_276_14)">
<g opacity="0.4">
<path d="M-1913 168.093L-1827.55 130.618C-1742.1 93.1441 -1571.2 18.1955 -1401.09 2.34103C-1230.59 -13.5135 -1061.28 29.7261 -890.773 67.2004C-720.667 104.675 -549.766 136.384 -379.66 118.511C-209.156 100.927 -39.8444 33.4735 130.659 -2.55951C300.766 -38.5925 471.667 -43.2046 641.773 -18.7022C812.276 5.8002 981.588 59.4172 1152.09 62.8764C1322.2 66.3355 1493.1 19.0603 1578.55 -4.28905L1664 -27.9268L1664 669.672L1578.55 719.26C1490.12 764.125 1388.22 745.234 1218.12 745.234C1047.61 745.234 812.276 669.672 641.773 669.672C471.666 669.672 394.662 690.924 233.2 719.26C54.3499 750.647 -43.4214 764.125 -213.925 764.125C-384.031 764.125 -658.616 669.672 -828.722 669.672C-999.226 669.672 -1108.18 703.911 -1242.31 745.234C-1376.45 786.558 -1484.51 816.074 -1722.97 745.234L-1913 669.672L-1913 168.093Z" fill="#AE8FB1"/>
<path d="M-1913 104.675L-1827.55 125.43C-1742.1 145.896 -1571.2 187.407 -1401.09 204.991C-1230.59 222.863 -1061.28 217.098 -890.773 192.019C-720.667 167.228 -549.766 122.835 -379.66 118.511C-209.156 114.187 -39.8445 149.932 130.659 180.488C300.765 211.333 471.666 237.276 641.773 253.131C812.276 268.985 981.588 274.751 1152.09 261.779C1322.2 248.807 1493.1 217.098 1578.55 201.243L1664 185.389L1664 669.672L1578.55 719.26C1490.12 764.125 1388.22 745.234 1218.12 745.234C1047.61 745.234 812.276 669.672 641.773 669.672C471.666 669.672 394.662 690.924 233.2 719.26C54.3499 750.647 -43.4214 764.125 -213.925 764.125C-384.031 764.125 -658.616 669.672 -828.722 669.672C-999.226 669.672 -1108.18 703.911 -1242.31 745.234C-1376.45 786.558 -1484.51 816.074 -1722.97 745.234L-1913 669.672L-1913 104.675Z" fill="#B2A3C8"/>
<path d="M-1913 274.751L-1827.55 274.751C-1742.1 274.751 -1571.2 274.751 -1401.09 296.947C-1230.59 318.855 -1061.28 363.248 -890.773 385.156C-720.667 407.352 -549.766 407.352 -379.66 399.569C-209.156 392.074 -39.8445 376.508 130.659 369.878C300.765 363.248 471.666 364.977 641.773 366.13C812.276 366.995 981.588 366.995 1152.09 344.51C1322.2 321.738 1493.1 276.768 1578.55 253.996L1664 231.511L1664 669.672L1578.55 719.26C1490.12 764.125 1388.22 745.234 1218.12 745.234C1047.61 745.234 812.276 669.672 641.773 669.672C471.666 669.672 394.662 690.924 233.2 719.26C54.3499 750.647 -43.4214 764.125 -213.925 764.125C-384.031 764.125 -658.616 669.672 -828.722 669.672C-999.226 669.672 -1108.18 703.911 -1242.31 745.234C-1376.45 786.558 -1484.51 816.074 -1722.97 745.234L-1913 669.672L-1913 274.751Z" fill="#B5B7DD"/>
<path d="M-1913 439.061L-1827.55 426.954C-1742.1 415.135 -1571.2 390.921 -1401.09 373.625C-1230.59 356.329 -1061.28 345.952 -890.773 352.005C-720.667 358.347 -549.766 381.408 -379.66 406.487C-209.156 431.278 -39.8445 458.374 130.659 463.563C300.765 468.752 471.666 452.609 641.773 428.395C812.276 404.469 981.588 372.76 1152.09 369.013C1322.2 364.977 1493.1 389.191 1578.55 401.01L1664 413.117L1664 669.672L1578.55 719.26C1490.12 764.125 1388.22 745.234 1218.12 745.234C1047.61 745.234 812.276 669.672 641.773 669.672C471.666 669.672 394.662 690.924 233.2 719.26C54.3499 750.647 -43.4214 764.125 -213.925 764.125C-384.031 764.125 -658.616 669.672 -828.722 669.672C-999.226 669.672 -1108.18 703.911 -1242.31 745.234C-1376.45 786.558 -1484.51 816.074 -1722.97 745.234L-1913 669.672L-1913 439.061Z" fill="#B9CBEF"/>
<path d="M-1913 514.009L-1827.55 510.262C-1742.1 506.226 -1571.2 498.732 -1401.09 500.173C-1230.59 501.614 -1061.28 511.992 -890.773 527.846C-720.667 543.701 -549.766 565.032 -379.66 555.231C-209.156 545.718 -39.8445 505.362 130.659 491.525C300.765 477.4 471.666 490.084 641.773 510.262C812.276 530.44 981.588 558.114 1152.09 565.897C1322.2 573.68 1493.1 560.996 1578.55 554.943L1664 548.601L1664 669.672L1578.55 719.26C1490.12 764.125 1388.22 745.234 1218.12 745.234C1047.61 745.234 812.276 669.672 641.773 669.672C471.666 669.672 394.662 690.924 233.2 719.26C54.3499 750.647 -43.4214 764.125 -213.925 764.125C-384.031 764.125 -658.616 669.672 -828.722 669.672C-999.226 669.672 -1108.18 703.911 -1242.31 745.234C-1376.45 786.558 -1484.51 816.074 -1722.97 745.234L-1913 669.672L-1913 514.009Z" fill="#BEDFFF"/>
</g>
</g>
</svg>
