<svg width="49" height="49" viewBox="0 0 49 49" fill="none" xmlns="http://www.w3.org/2000/svg">
<path fill-rule="evenodd" clip-rule="evenodd" d="M15.554 5.814C18.0538 5.16992 20.6831 5.22946 23.1512 5.98604C25.6193 6.74262 27.8302 8.16678 29.5397 10.1012C31.2491 12.0356 32.3905 14.4049 32.8378 16.9473C33.285 19.4898 33.0207 22.1064 32.074 24.508L41.272 32.294C41.9696 32.8835 42.5372 33.6114 42.939 34.4316C43.3408 35.2518 43.568 36.1465 43.6061 37.059C43.6443 37.9715 43.4927 38.8821 43.1609 39.733C42.829 40.5839 42.3242 41.3567 41.6783 42.0024C41.0324 42.6482 40.2596 43.1528 39.4086 43.4845C38.5576 43.8161 37.647 43.9676 36.7345 43.9292C35.822 43.8908 34.9274 43.6634 34.1073 43.2615C33.2871 42.8595 32.5594 42.2917 31.97 41.594L24.188 32.4C21.7861 33.3482 19.1687 33.6137 16.6253 33.1672C14.0819 32.7207 11.7115 31.5795 9.77617 29.8698C7.84087 28.1601 6.41607 25.9485 5.65929 23.4796C4.9025 21.0107 4.84322 18.3805 5.488 15.88C5.57891 15.5287 5.7628 15.2083 6.02034 14.9526C6.27787 14.6969 6.59954 14.5153 6.95153 14.4269C7.30352 14.3385 7.67282 14.3465 8.02062 14.4502C8.36841 14.5539 8.68186 14.7493 8.928 15.016L15.018 21.63L19.612 19.94L21.306 15.34L14.688 9.26C14.4197 9.01394 14.2229 8.69995 14.1184 8.35123C14.0139 8.00252 14.0055 7.63204 14.0943 7.27898C14.183 6.92591 14.3655 6.60339 14.6224 6.34551C14.8794 6.08764 15.2013 5.90399 15.554 5.814Z" fill="#424E74"/>
</svg>
