<svg width="49" height="39" viewBox="0 0 49 39" fill="none" xmlns="http://www.w3.org/2000/svg">
<path d="M0.5 11.2503V9.75029C0.5 8.50763 1.50734 7.50029 2.75 7.50029H36.5V3.00029C36.5 0.997134 38.928 -0.00364685 40.341 1.40926L47.841 8.90926C48.7197 9.78798 48.7197 11.2126 47.841 12.0912L40.341 19.5912C38.9334 20.9986 36.5 20.0118 36.5 18.0003V13.5003H2.75C1.50734 13.5003 0.5 12.4929 0.5 11.2503ZM46.25 25.5003H12.5V21.0003C12.5 19.0021 10.0754 17.9928 8.65897 19.4093L1.15897 26.9093C0.280344 27.788 0.280344 29.2126 1.15897 30.0912L8.65897 37.5912C10.0678 39 12.5 38.01 12.5 36.0003V31.5003H46.25C47.4927 31.5003 48.5 30.4929 48.5 29.2503V27.7503C48.5 26.5076 47.4927 25.5003 46.25 25.5003Z" fill="#424E74"/>
</svg>
