<svg width="49" height="49" viewBox="0 0 49 49" fill="none" xmlns="http://www.w3.org/2000/svg">
<mask id="mask0_114_61" style="mask-type:alpha" maskUnits="userSpaceOnUse" x="2" y="2" width="43" height="43">
<path d="M19.5 20.5C20.4193 20.5 21.3295 20.3189 22.1788 19.9672C23.0281 19.6154 23.7997 19.0998 24.4497 18.4497C25.0998 17.7997 25.6154 17.0281 25.9672 16.1788C26.3189 15.3295 26.5 14.4193 26.5 13.5C26.5 12.5807 26.3189 11.6705 25.9672 10.8212C25.6154 9.97194 25.0998 9.20026 24.4497 8.55025C23.7997 7.90024 23.0281 7.38463 22.1788 7.03284C21.3295 6.68106 20.4193 6.5 19.5 6.5C17.6435 6.5 15.863 7.2375 14.5503 8.55025C13.2375 9.86301 12.5 11.6435 12.5 13.5C12.5 15.3565 13.2375 17.137 14.5503 18.4497C15.863 19.7625 17.6435 20.5 19.5 20.5Z" fill="white" stroke="white" stroke-width="4" stroke-linecap="round" stroke-linejoin="round"/>
<path d="M33.5 8.5C33.5 8.5 35.75 13 33.5 18.5M40.5 4.5C40.5 4.5 45 12.6 40.5 22.5" stroke="white" stroke-width="4" stroke-linecap="round" stroke-linejoin="round"/>
<path d="M4.5 41.3V42.5H34.5V41.3C34.5 36.82 34.5 34.58 33.628 32.868C32.861 31.3628 31.6372 30.139 30.132 29.372C28.42 28.5 26.18 28.5 21.7 28.5H17.3C12.82 28.5 10.58 28.5 8.868 29.372C7.36277 30.139 6.13898 31.3628 5.372 32.868C4.5 34.58 4.5 36.82 4.5 41.3Z" fill="white" stroke="white" stroke-width="4" stroke-linecap="round" stroke-linejoin="round"/>
</mask>
<g mask="url(#mask0_114_61)">
<path d="M0.5 0.5H48.5V48.5H0.5V0.5Z" fill="#424E74"/>
</g>
</svg>
