<svg width="98" height="28" viewBox="0 0 98 28" fill="none" xmlns="http://www.w3.org/2000/svg">
<path d="M13.6339 12.9011C12.5242 12.2736 11.2677 11.9495 9.99174 11.9618C8.64128 11.9618 7.43325 12.186 6.36759 12.6343C5.34342 13.0651 4.53804 13.6049 3.95145 14.2536V0H0.00754438V17.1729C1.36932 17.9103 2.73205 18.0596 4.09383 17.8755C4.27782 17.3845 4.56201 16.9367 4.92845 16.5605C5.38947 16.0966 5.93909 15.7294 6.54487 15.4804C7.1854 15.2093 7.87462 15.0709 8.57056 15.0736C9.27728 15.0651 9.97607 15.2225 10.6104 15.5329C12.1259 14.9262 13.6424 14.4885 15.1579 14.6773C15.355 14.7017 15.553 14.7374 15.7501 14.7815C15.1854 14.0133 14.4643 13.3725 13.6339 12.9011Z" fill="#AE8FB1"/>
<path d="M28.4634 11.9627C26.8055 11.9627 25.3369 12.3168 24.0575 13.0251C22.817 13.6957 21.78 14.6857 21.0548 15.8918C20.8729 16.193 20.7132 16.5069 20.5766 16.831C21.4207 17.2068 22.2647 17.5233 23.1078 17.6492C23.5725 17.7189 24.044 17.7324 24.512 17.6895C24.5261 17.6614 24.5403 17.6332 24.5554 17.605C24.9154 16.9056 25.4548 16.3135 26.119 15.8889C26.7861 15.4627 27.5643 15.2409 28.3569 15.2512C28.7269 15.2492 29.0956 15.2934 29.4546 15.3827C30.017 14.9219 30.5542 14.4312 31.0635 13.9127C31.4407 13.5295 31.8179 13.1228 32.1952 12.7057C31.0968 12.211 29.8529 11.9634 28.4634 11.9627Z" fill="#AE8FB1"/>
<path d="M48.5393 12.4944C48.1744 12.6603 47.8212 12.8508 47.4822 13.0645C48.4478 13.5276 49.4126 13.7117 50.3783 13.8009L50.4933 11.9627C49.9721 11.9627 49.3208 12.1399 48.5393 12.4944Z" fill="#AE8FB1"/>
<path d="M61.5413 11.9627C60.0442 11.9461 58.5685 12.3184 57.2598 13.0429C56.6034 13.4051 55.997 13.8506 55.4557 14.3682C56.6317 14.7374 57.8134 15.3272 58.9857 15.7011L59.0186 15.6795C59.6796 15.2721 60.4445 15.0631 61.2216 15.0774C61.944 15.0774 62.5583 15.2051 63.0644 15.4606C63.948 14.929 64.8326 14.0254 65.7153 13.0579C64.5465 12.3284 63.1552 11.9634 61.5413 11.9627Z" fill="#AE8FB1"/>
<path d="M81.5776 12.2577C80.6506 12.9706 79.7226 13.4515 78.7946 13.3961C78.06 13.3557 77.3244 12.9781 76.5898 12.4568C77.457 12.1223 78.3796 11.9531 79.3095 11.958C80.0762 11.9463 80.8405 12.0472 81.5776 12.2577Z" fill="#AE8FB1"/>
<path d="M98 0.000949147V7.7585C96.9119 7.94231 95.8053 7.99216 94.705 7.90691C94.4768 7.88531 94.2486 7.85618 94.0204 7.82143V0.000949147H98Z" fill="#AE8FB1"/>
<path d="M5.05196 23.2473C3.36765 24.1415 1.68336 24.9897 0 25.5204V17.1748C1.36178 17.9122 2.72446 18.0615 4.08624 17.8774C4.04664 17.9801 4.01083 18.0853 3.97877 18.193V21.4805C4.18105 22.0985 4.51461 22.6659 4.95673 23.144C4.99068 23.1806 5.02273 23.2135 5.05196 23.2473Z" fill="#889BD3"/>
<path d="M17.2712 19.8198C17.2712 19.972 17.2712 20.1232 17.2627 20.2716C15.9028 19.9429 14.5439 19.7898 13.184 19.9457C13.184 19.9044 13.184 19.8621 13.184 19.8198C13.1981 18.9787 12.9896 18.1488 12.5795 17.4134C12.1855 16.7142 11.6163 16.1287 10.9272 15.7142C10.8216 15.6516 10.7141 15.5924 10.6047 15.5367C12.1202 14.9299 13.6367 14.4922 15.1522 14.681C15.3493 14.7054 15.5473 14.7411 15.7444 14.7853C15.9379 15.0486 16.1152 15.3234 16.2753 15.6081C16.9392 16.7891 17.2712 18.193 17.2712 19.8198Z" fill="#889BD3"/>
<path d="M24.8732 22.9195C23.6284 22.602 22.3835 22.0657 21.1387 21.5697C20.7719 21.4232 20.404 21.2804 20.0372 21.1452C19.9924 20.7523 19.9703 20.3571 19.9712 19.9617C19.9602 18.8892 20.1661 17.8254 20.5766 16.8339C21.4207 17.2096 22.2647 17.5261 23.1078 17.652C23.5725 17.7217 24.044 17.7353 24.512 17.6924C24.1576 18.4086 23.9777 19.198 23.9868 19.9964C23.9715 20.833 24.166 21.6601 24.5526 22.4029C24.6486 22.5815 24.7557 22.7541 24.8732 22.9195Z" fill="#889BD3"/>
<path d="M32.7214 20.2773C32.7261 20.1834 32.7279 20.0894 32.7279 19.9955C32.7425 19.159 32.5481 18.3321 32.1621 17.589C31.8005 16.9011 31.2685 16.3166 30.6165 15.8908C30.2611 15.659 29.8694 15.4879 29.4574 15.3845C30.0199 14.9237 30.5569 14.433 31.0663 13.9146C31.4435 13.5313 31.8207 13.1246 32.1979 12.7076C32.4111 12.8015 32.6186 12.9095 32.8204 13.0241C34.0304 13.6985 35.032 14.6899 35.7165 15.8908C35.9807 16.3535 36.1956 16.8424 36.3578 17.3495C35.1431 18.1226 33.9323 19.2356 32.7214 20.2773Z" fill="#889BD3"/>
<path d="M50.3783 13.8009L50.2453 15.9265C49.1319 15.8326 48.1545 16.0333 47.3133 16.5286C46.4908 17.0049 45.8151 17.6965 45.3593 18.5283C45.3292 18.5837 45.2989 18.6392 45.2707 18.6955C45.182 18.6176 45.0934 18.5405 45.0048 18.4663C43.577 17.2716 42.1501 16.5295 40.7223 16.3107V12.6334H44.2399L44.5662 16.1829C44.9423 15.33 45.5117 14.5754 46.2297 13.9784C46.625 13.6442 47.0436 13.3382 47.4822 13.0626C48.4478 13.5276 49.4126 13.7117 50.3783 13.8009Z" fill="#889BD3"/>
<path d="M69.3253 18.7932L63.8745 20.6239C62.888 19.8724 61.9016 19.2873 60.9151 19.3089C59.6703 19.3399 58.4245 20.3346 57.1796 21.4157C57.0448 21.5322 56.909 21.6505 56.7742 21.7689C55.8179 22.6058 54.8606 23.437 53.9044 23.8644C53.3385 22.726 53.0556 21.4357 53.0556 19.9936C53.0556 18.4839 53.4348 17.1272 54.193 15.9237C54.5503 15.3544 54.9766 14.831 55.4623 14.3654C56.6383 14.7346 57.82 15.3244 58.9922 15.6983C58.3647 16.1004 57.8551 16.6607 57.5153 17.3223C57.1475 18.018 56.964 18.8261 56.9646 19.7466C56.9646 19.9683 56.9744 20.183 56.9939 20.3909L64.8854 17.5731C64.6205 16.9207 64.2081 16.3379 63.6801 15.8702C63.4963 15.7062 63.2915 15.5672 63.0709 15.4569C63.9546 14.9252 64.8392 14.0216 65.7219 13.0542C66.0497 13.2581 66.3591 13.4897 66.647 13.7464C67.9818 14.9406 68.8746 16.6228 69.3253 18.7932Z" fill="#889BD3"/>
<path d="M88.7618 12.6334V18.2381C87.4349 18.8524 86.108 19.6789 84.7802 19.9438L84.7462 19.9504V18.2963C84.5623 17.6935 84.2394 17.1418 83.8032 16.6855C83.361 16.2236 82.8291 15.8564 82.2397 15.6062C81.6161 15.3432 80.9449 15.2108 80.2677 15.2174C79.4688 15.2091 78.6827 15.4168 77.993 15.8185C77.3089 16.2177 76.7446 16.7921 76.3587 17.482C75.9563 18.1902 75.7551 19.0042 75.7551 19.9241C75.7551 20.018 75.7551 20.112 75.7636 20.2059C74.5376 20.9179 73.3013 22.0159 72.0706 22.8359C71.8407 21.9543 71.7293 21.0462 71.7395 20.1354C71.7395 18.4372 72.0891 16.9804 72.7882 15.765C73.4404 14.5945 74.3976 13.621 75.5589 12.9471C75.889 12.7575 76.2329 12.5929 76.5878 12.4549C77.3225 12.9753 78.0581 13.3529 78.7927 13.3942C79.7207 13.4496 80.6487 12.9687 81.5757 12.2558C82.0046 12.3818 82.4135 12.5674 82.7904 12.8071C83.5647 13.2955 84.2387 13.926 84.7764 14.6651L85.0641 12.6296L88.7618 12.6334Z" fill="#889BD3"/>
<path d="M98 7.7585V24.0927C96.9004 22.1389 95.4944 19.9438 94.0204 18.6617V7.82237C94.2486 7.85713 94.4768 7.88623 94.705 7.90784C95.8053 7.99278 96.9119 7.94262 98 7.7585Z" fill="#889BD3"/>
<path d="M17.2627 20.2716C17.2036 21.7782 16.8453 23.0845 16.1876 24.1903C15.502 25.3718 14.5072 26.3457 13.3094 27.0082C12.9125 27.2272 12.4976 27.4123 12.0693 27.5614C11.2169 27.8556 10.3205 28.0036 9.41831 27.9991C8.50438 28.0128 7.59532 27.8646 6.73345 27.5614C6.47179 27.466 6.21716 27.3523 5.97145 27.2214C5.21822 26.8245 4.54391 26.2943 3.98158 25.6566V27.6103H0.00280892V25.5241C1.68617 24.9934 3.37046 24.1453 5.05477 23.2511C5.47662 23.6763 5.98236 24.0099 6.54009 24.2307C7.18486 24.4838 7.87281 24.6098 8.56578 24.6018C9.39524 24.6144 10.2123 24.4003 10.9282 23.9828C11.6226 23.575 12.1934 22.9879 12.5804 22.2836C12.9725 21.5677 13.1799 20.7659 13.184 19.9504C14.5439 19.7898 15.9028 19.9429 17.2627 20.2716Z" fill="#424E74"/>
<path d="M36.7388 19.926C36.7388 21.4595 36.3955 22.8337 35.709 24.0485C35.0287 25.2573 34.0265 26.2555 32.8129 26.933C32.36 27.1898 31.8815 27.3988 31.3851 27.5567C30.4035 27.8592 29.3805 28.0069 28.3531 27.9944C27.3337 28.0035 26.3189 27.8558 25.3447 27.5567C24.8939 27.4156 24.456 27.2365 24.0358 27.0213C22.7952 26.3981 21.7595 25.4343 21.051 24.2439C20.4928 23.2952 20.1458 22.2381 20.0334 21.1442C20.4003 21.2795 20.7681 21.426 21.1349 21.5688C22.3798 22.0647 23.6246 22.602 24.8694 22.9185C25.1986 23.387 25.6147 23.7884 26.0954 24.1011C26.7557 24.5286 27.529 24.7503 28.3164 24.7379C29.1928 24.7379 29.9567 24.5257 30.608 24.1011C31.2602 23.6752 31.7923 23.0903 32.1536 22.4019C32.5004 21.7448 32.6938 21.0182 32.7195 20.2763C33.9304 19.2347 35.1413 18.1216 36.3522 17.3495C36.6151 18.183 36.7456 19.0523 36.7388 19.926Z" fill="#424E74"/>
<path d="M45.2707 18.6955C44.8736 19.4586 44.6663 20.3055 44.6661 21.1649V27.6056H40.7223V16.3107C42.1501 16.5295 43.577 17.2716 45.0048 18.4663C45.0934 18.5405 45.182 18.6176 45.2707 18.6955Z" fill="#424E74"/>
<path d="M66.7281 26.3666C65.9252 26.8725 65.0589 27.271 64.1517 27.552L64.1366 27.5567C63.2634 27.8396 62.352 27.9872 61.4338 27.9944C60.3861 28.0065 59.3426 27.8589 58.3396 27.5567C57.855 27.4058 57.386 27.2089 56.9392 26.9687C55.716 26.3283 54.7089 25.3438 54.0431 24.1377C53.994 24.0438 53.9488 23.9583 53.9007 23.8672C54.8569 23.4398 55.8141 22.6086 56.7704 21.7717C56.9052 21.6533 57.041 21.535 57.1759 21.4185C58.4207 20.3374 59.6665 19.3427 60.9114 19.3117C61.8978 19.2873 62.8842 19.8677 63.8707 20.6267L57.7691 22.6762C58.1334 23.2291 58.6248 23.6876 59.2025 24.0138C59.9192 24.4103 60.7282 24.6115 61.5479 24.597C62.1546 24.5987 62.7566 24.4908 63.3247 24.2786C63.8925 24.068 64.4299 23.7838 64.9232 23.4333L66.7281 26.3666Z" fill="#424E74"/>
<path d="M88.7618 18.24V27.6056H84.7462V25.418L84.5869 25.6058C84.2352 25.9955 83.8418 26.3458 83.4137 26.6503C82.9045 27.0217 82.3496 27.3263 81.7624 27.5567L81.637 27.6056C80.8918 27.8768 80.1028 28.0087 79.3095 27.9944C78.3603 28.0025 77.4162 27.8546 76.5153 27.5567C76.1508 27.4349 75.7961 27.2858 75.4543 27.1106C74.3053 26.5204 73.359 25.6025 72.7364 24.474C72.4484 23.9586 72.2266 23.4092 72.0762 22.8387C73.3022 22.0197 74.5386 20.9216 75.7693 20.2087C75.801 20.9691 76.0174 21.7104 76.4001 22.3691C76.8062 23.0802 77.3871 23.6769 78.0882 24.103C78.7888 24.5283 79.5953 24.7489 80.4157 24.7398C81.0857 24.7463 81.7503 24.6185 82.3698 24.3641C82.9499 24.1257 83.4621 23.749 83.8616 23.267C84.2752 22.7633 84.5779 22.1786 84.75 21.5509V19.9542L84.784 19.9476C86.108 19.678 87.4349 18.8543 88.7618 18.24Z" fill="#424E74"/>
<path d="M98 24.0927V27.6065H94.0204V18.6617C95.4915 19.9429 96.9004 22.138 98 24.0927Z" fill="#424E74"/>
</svg>
