<svg width="1440" height="331" viewBox="0 0 1440 331" fill="none" xmlns="http://www.w3.org/2000/svg">
<g opacity="0.4">
<path d="M-2.18226e-05 81.3781L34.4 66.288C68.8 51.1979 137.6 21.0179 206.08 14.6337C274.72 8.24946 342.88 25.661 411.52 40.751C480 55.841 548.8 68.6095 617.28 61.4127C685.92 54.332 754.08 27.17 822.72 12.6604C891.2 -1.84929 960 -3.70647 1028.48 6.16007C1097.12 16.0266 1165.28 37.6169 1233.92 39.0098C1302.4 40.4028 1371.2 21.3662 1405.6 11.9639L1440 2.44556L1440 283.352L1405.6 303.32C1370 321.386 1328.98 313.779 1260.5 313.779C1191.86 313.779 1097.12 283.352 1028.48 283.352C960 283.352 929 291.91 864 303.32C792 315.959 752.64 321.386 684 321.386C615.52 321.386 504.98 283.352 436.5 283.352C367.86 283.352 324 297.139 270 313.779C216 330.419 172.5 342.305 76.5 313.779L-4.16552e-06 283.352L-2.18226e-05 81.3781Z" fill="#AE8FB1"/>
<path d="M-2.40552e-05 55.841L34.4 64.1985C68.8 72.44 137.6 89.1552 206.08 96.2359C274.72 103.433 342.88 101.111 411.52 91.0125C480 81.0298 548.8 63.1538 617.28 61.4127C685.92 59.6715 754.08 74.0652 822.72 86.3694C891.2 98.7896 960 109.237 1028.48 115.621C1097.12 122.005 1165.28 124.327 1233.92 119.103C1302.4 113.88 1371.2 101.111 1405.6 94.7269L1440 88.3427L1440 283.352L1405.6 303.32C1370 321.386 1328.98 313.779 1260.5 313.779C1191.86 313.779 1097.12 283.352 1028.48 283.352C960 283.352 929 291.91 864 303.32C792 315.959 752.64 321.386 684 321.386C615.52 321.386 504.98 283.352 436.5 283.352C367.86 283.352 324 297.139 270 313.779C216 330.419 172.5 342.305 76.5 313.779L-4.16552e-06 283.352L-2.40552e-05 55.841Z" fill="#B2A3C8"/>
<path d="M-1.8068e-05 124.327L34.4 124.327C68.8 124.327 137.6 124.327 206.08 133.265C274.72 142.086 342.88 159.962 411.52 168.784C480 177.722 548.8 177.722 617.28 174.588C685.92 171.57 754.08 165.302 822.72 162.632C891.2 159.962 960 160.659 1028.48 161.123C1097.12 161.471 1165.28 161.471 1233.92 152.417C1302.4 143.247 1371.2 125.139 1405.6 115.969L1440 106.915L1440 283.352L1405.6 303.32C1370 321.386 1328.98 313.779 1260.5 313.779C1191.86 313.779 1097.12 283.352 1028.48 283.352C960 283.352 929 291.91 864 303.32C792 315.959 752.64 321.386 684 321.386C615.52 321.386 504.98 283.352 436.5 283.352C367.86 283.352 324 297.139 270 313.779C216 330.419 172.5 342.305 76.5 313.779L-4.16552e-06 283.352L-1.8068e-05 124.327Z" fill="#B5B7DD"/>
<path d="M-1.22837e-05 190.49L34.3999 185.615C68.7999 180.856 137.6 171.106 206.08 164.141C274.72 157.176 342.88 152.998 411.52 155.435C480 157.989 548.8 167.275 617.28 177.374C685.92 187.356 754.08 198.268 822.72 200.357C891.2 202.446 960 195.946 1028.48 186.196C1097.12 176.561 1165.28 163.793 1233.92 162.284C1302.4 160.659 1371.2 170.409 1405.6 175.168L1440 180.044L1440 283.352L1405.6 303.32C1370 321.386 1328.98 313.779 1260.5 313.779C1191.86 313.779 1097.12 283.352 1028.48 283.352C960 283.352 929 291.91 864 303.32C792 315.959 752.64 321.386 684 321.386C615.52 321.386 504.98 283.352 436.5 283.352C367.86 283.352 324 297.139 270 313.779C216 330.419 172.5 342.305 76.5 313.779L-4.16552e-06 283.352L-1.22837e-05 190.49Z" fill="#B9CBEF"/>
<path d="M-9.64532e-06 220.67L34.3999 219.161C68.7999 217.536 137.6 214.518 206.08 215.099C274.72 215.679 342.88 219.858 411.52 226.242C480 232.626 548.8 241.216 617.28 237.269C685.92 233.439 754.08 217.188 822.72 211.616C891.2 205.929 960 211.036 1028.48 219.161C1097.12 227.287 1165.28 238.43 1233.92 241.564C1302.4 244.698 1371.2 239.591 1405.6 237.153L1440 234.6L1440 283.352L1405.6 303.32C1370 321.386 1328.98 313.779 1260.5 313.779C1191.86 313.779 1097.12 283.352 1028.48 283.352C960 283.352 929 291.91 864 303.32C792 315.959 752.64 321.386 684 321.386C615.52 321.386 504.98 283.352 436.5 283.352C367.86 283.352 324 297.139 270 313.779C216 330.419 172.5 342.305 76.5 313.779L-4.16552e-06 283.352L-9.64532e-06 220.67Z" fill="#BEDFFF"/>
</g>
</svg>
